/* XPM */
static char * Screenshot from 2023_03_29 10_02_36_xpm[] = {
"64 64 643 2",
"  	c None",
". 	c #2880B6",
"+ 	c #2880B7",
"@ 	c #2B81B9",
"# 	c #7FA2C2",
"$ 	c #7DA4C1",
"% 	c #7CA4C1",
"& 	c #6396BA",
"* 	c #2781B8",
"= 	c #3785BC",
"- 	c #EEE5CE",
"; 	c #ECE6CF",
"> 	c #EBE6CF",
", 	c #ECE7CF",
"' 	c #BCC4C3",
") 	c #2581B8",
"! 	c #2681B8",
"~ 	c #2780B7",
"{ 	c #277FB5",
"] 	c #92AEC4",
"^ 	c #9BB2C4",
"/ 	c #EDE5D0",
"( 	c #EDE5D1",
"_ 	c #D0D2C8",
": 	c #99B0C2",
"< 	c #6D99BD",
"[ 	c #2780B8",
"} 	c #2880B8",
"| 	c #2A80B7",
"1 	c #2A80B8",
"2 	c #277BB1",
"3 	c #DDE3DA",
"4 	c #EAE7D4",
"5 	c #EDE6D2",
"6 	c #EDE7D0",
"7 	c #A9BAC5",
"8 	c #2B7EB7",
"9 	c #2980B6",
"0 	c #2681B7",
"a 	c #8DACBF",
"b 	c #AABDC4",
"c 	c #ABBCC5",
"d 	c #ABBCC3",
"e 	c #E4E4D4",
"f 	c #EAE6D2",
"g 	c #ECE5D2",
"h 	c #E5E3D2",
"i 	c #D2DED2",
"j 	c #DEE1D1",
"k 	c #ECE6D1",
"l 	c #B3C8CA",
"m 	c #5EABC1",
"n 	c #97B7C3",
"o 	c #ACC0C4",
"p 	c #AEBEC4",
"q 	c #AABEC8",
"r 	c #3E87B9",
"s 	c #2780B6",
"t 	c #2582B9",
"u 	c #C1CBC7",
"v 	c #EDE5CE",
"w 	c #EFE3CF",
"x 	c #F0E3CF",
"y 	c #EFE4CF",
"z 	c #ECE5D1",
"A 	c #DFE2D2",
"B 	c #BBD7D3",
"C 	c #D1DDD1",
"D 	c #EDE5D2",
"E 	c #BFD5CD",
"F 	c #80CAC8",
"G 	c #CEDCCC",
"H 	c #E9E6CF",
"I 	c #ECE5CF",
"J 	c #E9E6D4",
"K 	c #508BBA",
"L 	c #8EACC2",
"M 	c #BDC9CA",
"N 	c #DDDCD0",
"O 	c #EEE4D1",
"P 	c #E8E4D2",
"Q 	c #D8E0D3",
"R 	c #D6DDD1",
"S 	c #CFDCCF",
"T 	c #CCDBCE",
"U 	c #C8DDCE",
"V 	c #E1E2D0",
"W 	c #EBE5CF",
"X 	c #EBE5D0",
"Y 	c #C0CACE",
"Z 	c #B6C5CF",
"` 	c #2581B6",
" .	c #3E8BBC",
"..	c #71B3CD",
"+.	c #5A9FC4",
"@.	c #2781B7",
"#.	c #2580B6",
"$.	c #2380B4",
"%.	c #AFBDC5",
"&.	c #EBE4D0",
"*.	c #EBE6D0",
"=.	c #EBE5D2",
"-.	c #DAE0D0",
";.	c #BBD7CD",
">.	c #D8DECE",
",.	c #E5E1D2",
"'.	c #2380B5",
").	c #4690BB",
"!.	c #8ACAD3",
"~.	c #8AC9D4",
"{.	c #89C8D4",
"].	c #6CADC6",
"^.	c #287FB5",
"/.	c #297FB6",
"(.	c #2980B7",
"_.	c #277FB7",
":.	c #82A9C3",
"<.	c #CED4C8",
"[.	c #DEDDCE",
"}.	c #CBDBCE",
"|.	c #C9DACE",
"1.	c #E7E4D0",
"2.	c #E1E2CF",
"3.	c #E8E4D0",
"4.	c #EBE4D1",
"5.	c #D1D4CD",
"6.	c #CED8D1",
"7.	c #CBE5D8",
"8.	c #CAE3DB",
"9.	c #C9E2DC",
"0.	c #AED3D5",
"a.	c #79BCCC",
"b.	c #589EC1",
"c.	c #2A81B8",
"d.	c #67ADC8",
"e.	c #77BBCD",
"f.	c #3F8CB8",
"g.	c #2981B7",
"h.	c #94B4C6",
"i.	c #ECE6CE",
"j.	c #ECE6D0",
"k.	c #EEE5D1",
"l.	c #C1D8CE",
"m.	c #BCD6CE",
"n.	c #EEE7D3",
"o.	c #EEE4D2",
"p.	c #EEE6D1",
"q.	c #EAE7D3",
"r.	c #DDECD8",
"s.	c #DCECDB",
"t.	c #DDEBDD",
"u.	c #C0DDD7",
"v.	c #8CC8D2",
"w.	c #61A4C4",
"x.	c #73B7CB",
"y.	c #88CAD0",
"z.	c #4290B9",
"A.	c #2A81B7",
"B.	c #EDE6D0",
"C.	c #EEE6CF",
"D.	c #A5D3CC",
"E.	c #8ECCC9",
"F.	c #DEE4D3",
"G.	c #E7E5D1",
"H.	c #EBE6D2",
"I.	c #E0E1CF",
"J.	c #BED9CE",
"K.	c #BED9CF",
"L.	c #BED8CE",
"M.	c #E1E0CF",
"N.	c #EDE4D2",
"O.	c #EEE5D2",
"P.	c #EDE5D3",
"Q.	c #D4DFD3",
"R.	c #90CDD5",
"S.	c #8FCBD4",
"T.	c #8DC8D3",
"U.	c #89C6D2",
"V.	c #85C2CF",
"W.	c #5A9DC1",
"X.	c #3E87BA",
"Y.	c #2E82B7",
"Z.	c #3C82B3",
"`.	c #3D82B3",
" +	c #3C82B4",
".+	c #97B4C3",
"++	c #EAE7CF",
"@+	c #E8E7D2",
"#+	c #E7E7D3",
"$+	c #E8E7D4",
"%+	c #9FD1CB",
"&+	c #85C7C5",
"*+	c #E2E6D3",
"=+	c #EAE5D3",
"-+	c #BFD7CD",
";+	c #BDD7CE",
">+	c #DFE0D1",
",+	c #ECE4D2",
"'+	c #D4DDD0",
")+	c #90C7D0",
"!+	c #8EC6D2",
"~+	c #89C9D7",
"{+	c #87C8D6",
"]+	c #569AC1",
"^+	c #2C7EB7",
"/+	c #2985BC",
"(+	c #E8E6D8",
"_+	c #EAE6D7",
":+	c #DCE0D2",
"<+	c #BED7CD",
"[+	c #A3D0C8",
"}+	c #85C8C6",
"|+	c #84C8C6",
"1+	c #AFD5CF",
"2+	c #B8D8D0",
"3+	c #E6E6D4",
"4+	c #E5E2D1",
"5+	c #BCD5D0",
"6+	c #CCDBD1",
"7+	c #E9E4D1",
"8+	c #E9E4D2",
"9+	c #CCDACF",
"0+	c #BDD6CE",
"a+	c #E2E3D0",
"b+	c #C4D7CF",
"c+	c #C3D6CE",
"d+	c #ECE4D1",
"e+	c #EBE5D1",
"f+	c #E7E6D5",
"g+	c #B6C2C6",
"h+	c #297FB2",
"i+	c #297EB3",
"j+	c #2A7EB6",
"k+	c #5292BF",
"l+	c #5898C1",
"m+	c #EEE6D0",
"n+	c #DFE1CF",
"o+	c #C2D7CF",
"p+	c #A2D2CC",
"q+	c #7FCAC9",
"r+	c #83CBCA",
"s+	c #87CBCB",
"t+	c #B6D4CF",
"u+	c #C1D6CF",
"v+	c #E7E6D4",
"w+	c #E6E3D1",
"x+	c #C5D7D1",
"y+	c #D0DBD2",
"z+	c #ECE4D0",
"A+	c #D1DBD0",
"B+	c #C4D7D0",
"C+	c #E2E3D1",
"D+	c #C1D6D0",
"E+	c #BFD6D0",
"F+	c #E3E4D3",
"G+	c #E2E4D3",
"H+	c #E6E4D1",
"I+	c #BBC6C8",
"J+	c #3C8DBA",
"K+	c #2B83B6",
"L+	c #2A7EB4",
"M+	c #E2DFD1",
"N+	c #F3E5D1",
"O+	c #EFE5D0",
"P+	c #B9DACF",
"Q+	c #81C9C9",
"R+	c #A7D3D0",
"S+	c #BCD6D1",
"T+	c #E6E1D3",
"U+	c #C1D7D0",
"V+	c #BDD6D1",
"W+	c #BBD6CF",
"X+	c #BBD5CF",
"Y+	c #CBD8CD",
"Z+	c #91C6CA",
"`+	c #90C6CA",
" @	c #90C6C9",
".@	c #8FC6CB",
"+@	c #4A8FB7",
"@@	c #2A80B6",
"#@	c #E0DED2",
"$@	c #F0E4D1",
"%@	c #C2DACE",
"&@	c #92CCCA",
"*@	c #B7D6D0",
"=@	c #E7E2D1",
"-@	c #EAE4D1",
";@	c #E2E1D1",
">@	c #E7E3D1",
",@	c #CDDAD0",
"'@	c #C9DAD1",
")@	c #B9D5D1",
"!@	c #B0D2CE",
"~@	c #C4D8CF",
"{@	c #D4DBCF",
"]@	c #ADCFCC",
"^@	c #A3CDCB",
"/@	c #9BCBC9",
"(@	c #91C8C8",
"_@	c #8CC7C9",
":@	c #5FA1BD",
"<@	c #5198BE",
"[@	c #2D82B6",
"}@	c #DFDED2",
"|@	c #D0DECF",
"1@	c #B8D7CD",
"2@	c #D9E0D2",
"3@	c #E0E1D0",
"4@	c #BAD5D1",
"5@	c #D1DCD2",
"6@	c #EAE3D2",
"7@	c #BBD5D0",
"8@	c #B2D4D0",
"9@	c #7EC9C9",
"0@	c #A9D3CE",
"a@	c #EDE3D3",
"b@	c #EDE3D5",
"c@	c #D1DDD3",
"d@	c #BAD7D0",
"e@	c #99CCCC",
"f@	c #8AC7CA",
"g@	c #8BC7CA",
"h@	c #89C8CC",
"i@	c #3286B5",
"j@	c #2881B5",
"k@	c #4A97BB",
"l@	c #57A2BC",
"m@	c #76A7BF",
"n@	c #79A9BE",
"o@	c #E0E0D1",
"p@	c #DBDED0",
"q@	c #D2DCD0",
"r@	c #B1D3D0",
"s@	c #7ECAC9",
"t@	c #A2D1CF",
"u@	c #DCDED6",
"v@	c #E3E1D5",
"w@	c #A6D1CE",
"x@	c #9ECFCD",
"y@	c #9ECECD",
"z@	c #9FCECD",
"A@	c #7CACC6",
"B@	c #72A8C6",
"C@	c #2780B4",
"D@	c #6CB3C4",
"E@	c #82C9C9",
"F@	c #AFD2D0",
"G@	c #B6D6CE",
"H@	c #E4E4D1",
"I@	c #B8D8CE",
"J@	c #DAE0D2",
"K@	c #EDE4D1",
"L@	c #E4E3D1",
"M@	c #BBD6D1",
"N@	c #BBD5D1",
"O@	c #95CECE",
"P@	c #BCD6CF",
"Q@	c #D2DDD1",
"R@	c #EFE5D8",
"S@	c #B8D7D2",
"T@	c #B8D7D1",
"U@	c #B9D8D1",
"V@	c #AED4DA",
"W@	c #287FB1",
"X@	c #4295BC",
"Y@	c #5FAEC0",
"Z@	c #60AFC0",
"`@	c #60AFC1",
" #	c #77C0C7",
".#	c #82C9CA",
"+#	c #ADD3D2",
"@#	c #BAD5CF",
"##	c #E5E4D4",
"$#	c #C7DBCD",
"%#	c #9CD1CB",
"&#	c #BFDACF",
"*#	c #D6DBD0",
"=#	c #D7DDCE",
"-#	c #D4DDCF",
";#	c #D0DBCF",
">#	c #BCD5CD",
",#	c #BCD5CF",
"'#	c #E9E3D2",
")#	c #BBD6D0",
"!#	c #B1D4D0",
"~#	c #87CCCC",
"{#	c #9CD0CD",
"]#	c #B6D7CF",
"^#	c #D4DFD4",
"/#	c #C4DAD1",
"(#	c #B9D7D0",
"_#	c #B8D7D0",
":#	c #BAD7D1",
"<#	c #BBD7D0",
"[#	c #B2D3D7",
"}#	c #2780AE",
"|#	c #57A5C3",
"1#	c #80CBC9",
"2#	c #80CACC",
"3#	c #80CACD",
"4#	c #81CACC",
"5#	c #B6D7CE",
"6#	c #E5E5D1",
"7#	c #ECE5D0",
"8#	c #BED8CD",
"9#	c #7FCBCA",
"0#	c #A7D2CB",
"a#	c #DEE1D2",
"b#	c #EAE5D2",
"c#	c #C2D6CD",
"d#	c #BCD6D0",
"e#	c #E7E4D3",
"f#	c #B9D7D2",
"g#	c #AFD5D1",
"h#	c #7DCACB",
"i#	c #7FC9CB",
"j#	c #9DCECE",
"k#	c #BED4D2",
"l#	c #BDD4D2",
"m#	c #BBD6D2",
"n#	c #B6D7D0",
"o#	c #B6D6CF",
"p#	c #B3D3D6",
"q#	c #2880AD",
"r#	c #2881B4",
"s#	c #3D8EB9",
"t#	c #53A0BA",
"u#	c #539FBC",
"v#	c #54A0BD",
"w#	c #54A0BC",
"x#	c #8FC5CC",
"y#	c #99CECE",
"z#	c #C7DDD0",
"A#	c #D0DCCF",
"B#	c #D2DBD1",
"C#	c #D2DBCF",
"D#	c #AED2CC",
"E#	c #7FCBC9",
"F#	c #90CECA",
"G#	c #99CFCC",
"H#	c #C3D9D0",
"I#	c #CFDBD2",
"J#	c #BFD5D0",
"K#	c #BCD4D1",
"L#	c #B7D6CF",
"M#	c #96D0CB",
"N#	c #BBD7CF",
"O#	c #D0DDD2",
"P#	c #D2DDCE",
"Q#	c #CADBCF",
"R#	c #9ACFCC",
"S#	c #96CECC",
"T#	c #7FCACA",
"U#	c #80CACA",
"V#	c #89CCCB",
"W#	c #95D0CD",
"X#	c #96D0CD",
"Y#	c #97CFCC",
"Z#	c #98CECA",
"`#	c #B1D5CE",
" $	c #75BBCA",
".$	c #86C7CE",
"+$	c #B2D6D0",
"@$	c #BAD8D0",
"#$	c #C2D9D0",
"$$	c #EBE6D4",
"%$	c #E2E2D3",
"&$	c #BBD6CE",
"*$	c #BBD6CD",
"=$	c #A0CFCB",
"-$	c #7DCBC9",
";$	c #AFD3CF",
">$	c #BBD5D2",
",$	c #B2D7CE",
"'$	c #80C9C8",
")$	c #93CECA",
"!$	c #BBD7CE",
"~$	c #CFDDD2",
"{$	c #BDD8CD",
"]$	c #B4D6D1",
"^$	c #80CAC9",
"/$	c #7ECACA",
"($	c #82CAC8",
"_$	c #AED5CE",
":$	c #BBD7D1",
"<$	c #2880AE",
"[$	c #2880B5",
"}$	c #448FB7",
"|$	c #4E93B9",
"1$	c #7BB5B6",
"2$	c #7FB8B4",
"3$	c #8DBCB7",
"4$	c #C7DAD0",
"5$	c #BAD7CE",
"6$	c #8FCDCB",
"7$	c #8FCCCC",
"8$	c #88CACB",
"9$	c #80C9CA",
"0$	c #8CCDCB",
"a$	c #8ECECB",
"b$	c #8BCDCB",
"c$	c #82CBC9",
"d$	c #A5D5CE",
"e$	c #C7DBD0",
"f$	c #C8DBD0",
"g$	c #C6DAD1",
"h$	c #96CDCB",
"i$	c #8ECCCA",
"j$	c #75BEBD",
"k$	c #6BB5B3",
"l$	c #6BB4B3",
"m$	c #6DB4B3",
"n$	c #ACD2CB",
"o$	c #6A9DBD",
"p$	c #6198BD",
"q$	c #267FB2",
"r$	c #63AAB1",
"s$	c #69AEAD",
"t$	c #77B4B3",
"u$	c #B7DBD2",
"v$	c #ABD5D0",
"w$	c #85C9CA",
"x$	c #84C9CA",
"y$	c #83CACA",
"z$	c #82CAC9",
"A$	c #7FC9C8",
"B$	c #9AD0CC",
"C$	c #BCD7CE",
"D$	c #8ACACA",
"E$	c #82CACC",
"F$	c #72BABA",
"G$	c #65AFAE",
"H$	c #66AFAE",
"I$	c #AAD2CE",
"J$	c #BAD8D4",
"K$	c #3D85B5",
"L$	c #2A80B5",
"M$	c #3084B6",
"N$	c #3185B6",
"O$	c #3185B7",
"P$	c #3F8EB2",
"Q$	c #71B3B2",
"R$	c #6FB1AF",
"S$	c #6BB0B1",
"T$	c #6BB0B0",
"U$	c #6AB0B0",
"V$	c #7AC1C1",
"W$	c #7DC7C6",
"X$	c #66B0AF",
"Y$	c #6FBAB9",
"Z$	c #82CBCC",
"`$	c #84CBCC",
" %	c #84CCCC",
".%	c #81CACA",
"+%	c #79BFC0",
"@%	c #69B0B0",
"#%	c #509BB0",
"$%	c #3384B6",
"%%	c #3484B6",
"&%	c #3F8AB9",
"*%	c #448BB9",
"=%	c #2B7EB3",
"-%	c #2980B5",
";%	c #388BB6",
">%	c #64ADB1",
",%	c #64ADB2",
"'%	c #63ACB1",
")%	c #76C0BF",
"!%	c #7CC5C4",
"~%	c #62ABAE",
"{%	c #6EB6B8",
"]%	c #7EC8C9",
"^%	c #7FC8CA",
"/%	c #7FC9CA",
"(%	c #80C9CB",
"_%	c #81C9CB",
":%	c #82C9CB",
"<%	c #81C8CA",
"[%	c #76BDBE",
"}%	c #65ACAE",
"|%	c #4B97B0",
"1%	c #2A7FB8",
"2%	c #2C7FB7",
"3%	c #2D7FB5",
"4%	c #2B7EB4",
"5%	c #2981B6",
"6%	c #2A81B3",
"7%	c #2980B2",
"8%	c #2881B3",
"9%	c #56A0AE",
"0%	c #65ADAD",
"a%	c #66ADAD",
"b%	c #60A7AF",
"c%	c #2D80B1",
"d%	c #4491AE",
"e%	c #63ADAE",
"f%	c #64AEAC",
"g%	c #64AEAB",
"h%	c #64AEAD",
"i%	c #7BC5C4",
"j%	c #81C7C9",
"k%	c #66AEAD",
"l%	c #66ADAE",
"m%	c #67AEAF",
"n%	c #539DB0",
"o%	c #2E81B3",
"p%	c #2C80B4",
"q%	c #529CB3",
"r%	c #5FA7B1",
"s%	c #61A6B1",
"t%	c #5BA1B3",
"u%	c #297FB4",
"v%	c #3F8EB3",
"w%	c #5EA8B0",
"x%	c #5DA8AF",
"y%	c #5DA8AE",
"z%	c #5EA8AF",
"A%	c #77C0BF",
"B%	c #7DC5C5",
"C%	c #7CC4C4",
"D%	c #5EA9AD",
"E%	c #5DA9AE",
"F%	c #5EA9AF",
"G%	c #4C99B1",
"H%	c #2B80B6",
"I%	c #2B80B8",
"J%	c #2C80B8",
"K%	c #2C80B7",
"L%	c #2A7FB6",
"M%	c #2B81B4",
"N%	c #2D80B6",
"O%	c #5FA5B0",
"P%	c #67ADAB",
"Q%	c #67ADAC",
"R%	c #64ABAD",
"S%	c #2882B5",
"T%	c #2780B5",
"U%	c #549BB2",
"V%	c #5CA3B1",
"W%	c #5CA2B1",
"X%	c #59A0B2",
"Y%	c #2982B7",
"Z%	c #2981B5",
". . . . . . . . . . . . . . . . . . . . . . . . . . . . . . . . . . . . . . . . . . . . . . . . . . . . . . . . . . . . . . . . ",
". . . . . . . . . . . . . . . . . . . . . . . . . . . . . . . . . . . . . . . . . . . . . . . . . . . . . . . . . . . . . . . . ",
". . . . . . . . . . . . . . . . . . . . . . . . . . . . . . . . . . . . . . . . . . . . . . . . . . . . . . . . . . . . . . . . ",
". . . . . . . . . . . . . . . . . . . . . . . . . . . . . . . . . . . . . . . . . . . . . . . . . . . . . . . . . . . . . . . . ",
". . . . . . . . . . . . . . . . . . . . . . . . . . . . . . . . . . . . . . . . . . . . . . . . . . . . . . . . . . . . . . . . ",
". . . . . . . . . . . . . . . . . . . . . . . . . . . . . . . . . . . . . . . . . . . . . . . . . . . . . . . . . . . . . . . . ",
". . . . . . . . . . . . . . . . . . . . . . . . . . . . . . . . . . . . . . . . . . . . . . . . . . . . . . . . . . . . . . . . ",
". . . . . . . . . . . . . . . . . . . . . . . . . . . . . . . . . . . . . . . . . . . . . . . . . . . . . . . . . . . . . . . . ",
". . . . . . . . . . . . . . . . . . . . . . . . . . . . . . . . . . . . . . . . . . . . . . . . . . . . . . . . . . . . . . . . ",
". . . . . . . . . . . . . . . . . . . . . . . . . . . . . . . . . . . . . . . . . . . . . . . . . . . . . . . . . . . . . . . . ",
". . . . . . . . . . . . . . . . . . . . . . . . . . . . . . . . . . . . . . . . . . . . . . . . . . . . . . . . . . . . . . . . ",
". . . . . . . . . . . . . . . . . . . . . . . . . . . . . . . . . . . . . . . . . . . . . . . . . . . . . . . . . . . . . . . . ",
". . . . . . . . . . . . . . . . . . . . . . . . . . . . . . . . . . . . . . . . . . . . . . . . . . . . . . . . . . . . . . . . ",
". . . . . . . . . . . . . . . . . . . . . . . . . . . . . . . . . . . . . . . . . . . . . . . . . . . . . . . . . . . . . . . . ",
". . . . . . . . . . . . . . . . . . . . . . . . . . . . . . . . . . . . . . . . . . . . . . . . . . . . . . . . . . . . . . . . ",
". . . . . . . . . . . . . . . . . . . . . . . . . . . + @ # $ % % % & . . . . . . . . . . . . . . . . . . . . . . . . . . . . . ",
". . . . . . . . . . . . . . . . . . . . . . . . . . + * = - ; > > , ' ) ! ~ + + + + + + . . . . . . . . . . . . . . . . . . . . ",
". . . . . . . . . . . . . . . . . . . . . . . . . . { ] ^ / ( ( ( ( _ : < ! [ [ [ } } } . . . . . . . . . . . . . . . . . . . . ",
". . . . . . . . . . . . . . . . . . . . . . . . | 1 2 3 4 5 ( ( ( ( 6 6 7 ! ~ 8 8 9 ~ } . . . . . . . . . . . . . . . . . . . . ",
". . . . . . . . . . . . . . . . . . . . . . 0 a b c d e f g ( ( h i j k l m n o p q r } + + + + + + + + + . . . . . . . . . . . ",
". . . . . . . . . . . . . . . . . . . . . s t u v w x y / z ( ( A B C D E F G H I J K } } } } } } } } } + . . . . . . . . . . . ",
". . . . . . . . . . . . . . . . . . . . . L M N ( O O ( ( ( ( ( P Q R S T U V W X g Y Z `  .......+.} } + . . . . . . . . . . . ",
". . . . . . . . . . . . . . . . . . @.#.$.%.&.g ( ( ( *.z z ( ( g =.-.;.>.( ( ( ( ( z ,.'.).!.~.{.].^./.(.+ _.. . . . . . . . . ",
". . . . . . . . . . . . . . . . . . @.:.<.[.z g ( ( k }.|.5 ( ( ( g 1.2.3.( ( ( ( ( ( 4.5.6.7.8.9.0.a.b.c.d.e.f.g.g.. . . . . . ",
". . . . . . . . . . . . . . . . . . @.h.i.; j.z ( k.5 l.m.n.( ( D o.k.k.k.k.( ( ( ( ( ( p.q.r.s.t.u.v.w.[ x.y.z.g.A.. . . . . . ",
". . . . . . . . . . . . . . . . . . @.h.B.z z z C.D.E.F.G.H.z ( I.J.K.J.J.L.M.g N.N.N.N.O.5 P.Q.R.S.T.U.V.W.X.Y.. . . . . . . . ",
". . . . . . . . . . . . . ~ Z.`.`.`. +.+++@+#+#+$+%+&+*+5 ( g =+j -+;+;+;+;+>+=+g k.,+,+N.N.D '+)+!+~+~+{+]+^+/.. . . . . . . . ",
". . . . . . . . . . . . + /+(+_+_+_+_+:+<+[+}+}+|+1+2+3+z ( 4+5+6+7+8+8+8+8+9+0+a+( b+c+,+d+d+e+f+g+h+h+h+i+j+. . . . . . . . . ",
". . . . . . . . . . + } k+l+/ k.( ( m+n+o+p+q+r+s+t+u+v+z z w+x+y+z+( ( ( ( A+B+C+( D+E+F+G+h H+5 I+J+J+J+J+J+K+. . . . . . . . ",
". . . . . . . . . . + L+M+N+O+k.( ( ( / O P+Q+R+S+T+O.D N.( k.( ( ( ( ( ( ( k.O.O.( U+V+W+W+X+9+( Y+Z+`+ @ @.@+@@@@@. . . . . . ",
". . . . . . . . . . + L+#@$@O+k.( ( ( ( O %@&@*@|.=@N.N.N.N.( ( -@;@>@( ( ( ( ( ( D ,@'@5+)@!@~@,+{@]@^@/@(@_@:@<@[@. . . . . . ",
". . . . . . . . . . + L+}@( ( ( ( ( ( ( ( |@1@2@N.N.N.( ( ( ( ( 3@4@5@z ( ( ( ( ( N.N.6@7@8@9@0@a@b@b@c@d@e@f@g@h@i@j@j@. . . . ",
". . . . . . . . k@l@m@n@o@( ( ( ( ( ( ( ( |@1@2@N.N.N.( ( ( -@p@q@4@5@z ( ( ( ( ( N.N.6@7@r@s@t@u@v@b@c@d@w@x@y@z@A@B@C@. . . . ",
". . . . @.! ! ! D@E@F@G@H@( ( ( ( ( ( ( ( |@I@J@K@N.N./ / / L@X+M@N@5@z ( ( ( ( ( N.N.6@7@r@s@O@P@Q@R@c@d@S@S@S@T@U@V@W@. . . . ",
". . . s X@Y@Z@`@ #.#+#@###( ( ( ( ( ( ( ( $#%#&#*#>@g =#-#-#;#>#,#5+5@z ( ( ( ( ( N.N.'#)#!#9@~#{#]#^#/#(#_#S@:#<#d@[#}#j@. . . ",
". . . s |#1#2#3#3#4#+#5#6#7#z+z+z ( ( ( ( 8#9#0#)#a#b#c#5+5+5+d#d#<#5@z ( ( ( ( ( N.g e#f#g#s@h#i#j#k#l#m#n#o#(#<#<#p#q#r#j@. . ",
". . . . s#t#u#v#v#w#x#y#z#A#A#-#=.w+B#C#C#D#E#F#G#H#I#J#K#5+L#M#p+N#O#=.D N.N.N.( g P#Q#R#S#q+T#U#V#W#W#X#Y#Z#`#N#<#p#q#j@. . . ",
". . . . . 9 . . . .  $.$+$@$@$#$$$%$N@&$*$=$q+-$-$;$>$>$>$M@,$'$)$!$~$=.g N.N.N.N.g {$]$q+^$^$^$^$T#h#/$T#^$($_$N#:$[#<$j@. . . ",
". . . . . . . . . [$}$|$1$2$2$3$4$5$6$7$7$8$9$^$^$0$a$a$a$a$b$^$c$a$d$e$f$f$f$f$f$g$h$i$^$^$^$^$^$U#9$j$k$l$m$n$:$o$p$q$. . . . ",
". . . . . . . . . . [$/.r$s$s$t$u$v$w$w$w$x$y$z$^$^$q+q+q+q+A$q+s@s@B$C$C$C$C$C$C$N#D$E@Q+Q+Q+Q+Q+.#E$F$G$G$H$I$J$K$L$[$. . . . ",
". . . . . . . . . . . . M$N$O$P$Q$R$S$T$T$T$U$V$^$^$^$^$^$^$W$X$Y$9@Z$`$ % % % % % %.%.#.#.#.#.#.#+%@%#%$%$%%%&%*%=%-%. . . . . ",
". . . . . . . . . . . . . . } ;%>%>%,%,%,%,%'%)%^$^$^$^$^$Q+!%~%{%]%^%/%/%/%/%/%(%(%_%:%<%<%<%<%<%[%}%|%1%} 1%2%3%4%9 . . . . . ",
". . . . . . . . . . . . . . . 5%6%7%7%7%7%7%8%9%0%a%a%a%a%a%b%c%d%e%f%g%g%g%g%h%i%(%_%j%k%a%l%l%m%n%o%p%9 . . 9 9 9 . . . . . . ",
". . . . . . . . . . . . . . . . . . . . . . ~ q%r%r%r%r%r%s%t%u%v%w%x%y%y%y%y%z%A%B%B%C%D%E%E%E%F%G%H%@@9 . . . . . . . . . . . ",
". . . . . . . . . . . . . . . . . . . . . . (.I%J%J%J%J%J%J%K%L%/.L$M%M%M%M%M%N%O%P%Q%R%S%[$T%s s . @@@@9 . . . . . . . . . . . ",
". . . . . . . . . . . . . . . . . . . . . . . . 9 9 9 9 9 9 9 . . . . . . . . + U%V%W%X%Y%Z%j@. . . . . . . . . . . . . . . . . ",
". . . . . . . . . . . . . . . . . . . . . . . . . . . . . . . . . . . . . . . ~ . ^.[$[$. . . . . . . . . . . . . . . . . . . . ",
". . . . . . . . . . . . . . . . . . . . . . . . . . . . . . . . . . . . . . . . . . . . . . . . . . . . . . . . . . . . . . . . ",
". . . . . . . . . . . . . . . . . . . . . . . . . . . . . . . . . . . . . . . . . . . . . . . . . . . . . . . . . . . . . . . . ",
". . . . . . . . . . . . . . . . . . . . . . . . . . . . . . . . . . . . . . . . . . . . . . . . . . . . . . . . . . . . . . . . ",
". . . . . . . . . . . . . . . . . . . . . . . . . . . . . . . . . . . . . . . . . . . . . . . . . . . . . . . . . . . . . . . . ",
". . . . . . . . . . . . . . . . . . . . . . . . . . . . . . . . . . . . . . . . . . . . . . . . . . . . . . . . . . . . . . . . ",
". . . . . . . . . . . . . . . . . . . . . . . . . . . . . . . . . . . . . . . . . . . . . . . . . . . . . . . . . . . . . . . . ",
". . . . . . . . . . . . . . . . . . . . . . . . . . . . . . . . . . . . . . . . . . . . . . . . . . . . . . . . . . . . . . . . ",
". . . . . . . . . . . . . . . . . . . . . . . . . . . . . . . . . . . . . . . . . . . . . . . . . . . . . . . . . . . . . . . . ",
". . . . . . . . . . . . . . . . . . . . . . . . . . . . . . . . . . . . . . . . . . . . . . . . . . . . . . . . . . . . . . . . ",
". . . . . . . . . . . . . . . . . . . . . . . . . . . . . . . . . . . . . . . . . . . . . . . . . . . . . . . . . . . . . . . . ",
". . . . . . . . . . . . . . . . . . . . . . . . . . . . . . . . . . . . . . . . . . . . . . . . . . . . . . . . . . . . . . . . ",
". . . . . . . . . . . . . . . . . . . . . . . . . . . . . . . . . . . . . . . . . . . . . . . . . . . . . . . . . . . . . . . . ",
". . . . . . . . . . . . . . . . . . . . . . . . . . . . . . . . . . . . . . . . . . . . . . . . . . . . . . . . . . . . . . . . ",
". . . . . . . . . . . . . . . . . . . . . . . . . . . . . . . . . . . . . . . . . . . . . . . . . . . . . . . . . . . . . . . . ",
". . . . . . . . . . . . . . . . . . . . . . . . . . . . . . . . . . . . . . . . . . . . . . . . . . . . . . . . . . . . . . . . ",
". . . . . . . . . . . . . . . . . . . . . . . . . . . . . . . . . . . . . . . . . . . . . . . . . . . . . . . . . . . . . . . . ",
". . . . . . . . . . . . . . . . . . . . . . . . . . . . . . . . . . . . . . . . . . . . . . . . . . . . . . . . . . . . . . . . "};
